<?xml version="1.0" encoding="UTF-8"?>
<svg id="_Слой_2" data-name="Слой 2" xmlns="http://www.w3.org/2000/svg" viewBox="0 0 285.5 176.16">
  <defs>
    <style>
      .cls-1 {
        fill: #223260;
        stroke-width: 0px;
      }
    </style>
  </defs>
  <g id="_Слой_1-2" data-name="Слой 1">
    <g>
      <g>
        <g>
          <path class="cls-1" d="m155.68,70.51c-2.89-1.87-6.2-2.53-12.89-2.53h-12.11v48.78h9.03v-18.55h2.89c6.69,0,9.76-.54,12.41-1.99,4.22-2.35,6.81-7.41,6.81-13.19,0-5.48-2.23-9.94-6.2-12.53h.06Zm-7.05,18.43c-1.45.48-3.55.66-6.2.66h-2.65v-12.95h3.01c2.95,0,4.34.12,5.72.48,2.65.72,4.22,3.01,4.22,6.14,0,2.77-1.57,4.94-4.16,5.66h.06Z"/>
          <polygon class="cls-1" points="168.57 116.76 177.61 116.76 177.61 76.65 194.23 76.65 194.23 67.98 168.57 67.98 168.57 116.76"/>
          <path class="cls-1" d="m222.05,75.81c5.66,0,9.52,1.87,12.83,6.14h10.12c-1.87-4.1-3.43-6.26-6.5-8.91-4.58-3.85-10.42-5.96-16.56-5.96-13.79,0-25.05,11.26-25.05,25.05s11.44,25.42,25.66,25.42c10.06,0,18.67-5.54,22.52-14.45h-10.6c-4.04,4.16-7.41,5.72-12.11,5.72-9.03,0-16.38-7.53-16.38-16.62,0-3.97,1.51-8.19,4.04-11.08,2.95-3.49,7.11-5.36,12.17-5.36l-.12.06Z"/>
          <polygon class="cls-1" points="275.59 67.98 265.78 92.79 256.14 67.98 246.39 67.98 261.32 103.93 256.32 116.76 264.93 116.76 285.35 67.98 275.59 67.98"/>
        </g>
        <path class="cls-1" d="m5.64,111.23c0-4.35,3.45-8.1,5.95-10.21,2.28,1.68,5.09,2.67,8.14,2.67,3.23,0,6.25-1.12,8.58-3.06,1.77,1.47,4.14,3.84,5.47,6.72v9.39h5.65v-16.68c0-7.97,3.53-12.28,5.69-14.18,2.8,2.24,6.38,3.58,10.26,3.58s7.15-1.25,9.91-3.32c2.2,2.03,5.39,6.29,5.39,13.92v16.68h5.69v-12.63c.39-6.12,4.05-9.65,6.33-11.25,2.2,1.51,4.87,2.41,7.71,2.41s5.21-.78,7.33-2.15c2.41,1.85,6.03,5.69,6.03,12.15v11.51h5.65v-11.51c0-8.27-4.27-13.36-7.63-16.12,1.42-2.15,2.28-4.74,2.28-7.54,0-5.04-2.76-9.48-6.85-11.85v-7.58c0-15.56-10.13-23.62-16.55-27.19,3.88-3.71,6.33-8.92,6.33-14.69,0-11.2-9.09-20.3-20.3-20.3-7.37,0-13.79,3.92-17.37,9.83-2.8-1.47-5.99-2.28-9.35-2.28-11.2,0-20.3,9.09-20.3,20.3,0,4.83,1.68,9.22,4.48,12.71-3.96,2.89-9.48,9.31-9.61,22.97-.04,5.86-.09,10.51-.09,13.92-4.96,2.07-8.4,6.94-8.4,12.63,0,2.46.65,4.78,1.81,6.77C4.56,99.68.04,104.8.04,111.27v5.56h5.65v-5.56l-.04-.04Zm49.73-27.36c-5.99,0-10.86-4.87-10.86-10.86s4.87-10.86,10.86-10.86,10.86,4.87,10.86,10.86-4.87,10.86-10.86,10.86Zm34.99,5.77c-4.44,0-8.06-3.62-8.06-8.06s3.62-8.06,8.06-8.06,8.06,3.62,8.06,8.06-3.62,8.06-8.06,8.06Zm1.21-27.45v5.82c-.39,0-.82-.04-1.21-.04-7.54,0-13.66,6.12-13.66,13.66,0,2.63.73,5.09,2.03,7.15-1.12.86-2.33,1.98-3.49,3.4-1.42-4.87-4.01-8.1-6.08-10.04,1.72-2.63,2.76-5.73,2.76-9.09,0-5.21-2.41-9.87-6.21-12.89-.86-11.64-6.03-17.24-9.74-19.78.52-.65.99-1.34,1.42-2.03,2.8,1.47,5.99,2.28,9.35,2.28,3.1,0,6.03-.69,8.66-1.94,4.31,1.81,16.16,8.14,16.16,23.57v-.09ZM66.7,5.65c8.06,0,14.65,6.59,14.65,14.65s-6.59,14.65-14.65,14.65c-2.59,0-5-.69-7.11-1.85.47-1.68.69-3.45.69-5.3,0-5.77-2.46-10.99-6.33-14.69,2.5-4.44,7.28-7.46,12.76-7.46Zm-26.72,7.5c8.1,0,14.65,6.59,14.65,14.65s-6.59,14.65-14.65,14.65-14.65-6.59-14.65-14.65,6.59-14.65,14.65-14.65Zm-11.55,31.33c3.28,2.28,7.28,3.62,11.55,3.62s8.45-1.38,11.72-3.75c2.07,1.12,6.38,4.4,7.89,12.71-1.34-.34-2.76-.56-4.22-.56-9.09,0-16.5,7.41-16.5,16.5,0,3.19.9,6.21,2.5,8.7-2.89,2.54-6.98,7.63-7.5,16.38-.69-.69-1.38-1.29-1.98-1.81.99-1.9,1.51-4.01,1.51-6.25,0-7.41-5.95-13.45-13.27-13.66,0-2.93,0-7.02.09-12.8.13-12.84,5.6-17.54,8.23-19.09Zm-8.7,37.49c4.44,0,8.06,3.62,8.06,8.06s-3.62,8.06-8.06,8.06-8.06-3.62-8.06-8.06,3.62-8.06,8.06-8.06Z"/>
      </g>
      <g>
        <path class="cls-1" d="m8.22,132.69H3.48v11.33H0v-14.5h8.22v3.17Z"/>
        <path class="cls-1" d="m9.24,140.67h3.48v3.35h-3.48v-3.35Z"/>
        <path class="cls-1" d="m23.84,124.68h4.92l5.21,14.65,5.16-14.65h4.92v19.34h-3.58v-14.5l-5.05,14.5h-2.93l-5.05-14.5v14.5h-3.58v-19.34Z"/>
        <path class="cls-1" d="m60.79,129.52v14.5h-3.45v-9.58l-6.49,9.58h-3.53v-14.5h3.45v9.58l6.49-9.58h3.53Z"/>
        <path class="cls-1" d="m73.48,144.02v-5.73h-6.39v5.73h-3.48v-14.5h3.48v5.6h6.39v-5.6h3.48v14.5h-3.48Z"/>
        <path class="cls-1" d="m94.04,139.26c-1.2,3.25-3.79,5.1-7.2,5.1-4.29,0-7.75-3.38-7.75-7.59s3.35-7.59,7.64-7.59c2.07,0,4.03.76,5.44,2.15.92.89,1.36,1.62,1.86,3.04h-3.92c-.71-1.36-1.81-1.99-3.38-1.99-2.43,0-4.13,1.81-4.13,4.37s1.81,4.42,4.21,4.42c1.44,0,2.43-.58,3.3-1.91h3.92Z"/>
        <path class="cls-1" d="m96.13,129.52h3.48v6.67l5.02-6.67h4.21l-5.78,7.2,6.1,7.3h-4.53l-5.02-6.67v6.67h-3.48v-14.5Z"/>
        <path class="cls-1" d="m111.15,140.67h3.48v3.53c0,1.52-.55,2.49-1.73,3.11-.58.29-.99.37-1.75.37v-1.75c1.1-.21,1.54-.63,1.54-1.44,0-.13,0-.29-.03-.47h-1.52v-3.35Z"/>
        <path class="cls-1" d="m.45,151.98h4.79c2.64,0,3.95.26,5.1.99,1.57,1.02,2.46,2.8,2.46,4.97,0,2.3-1.02,4.29-2.7,5.23-1.05.58-2.28.79-4.92.79h-1.15v7.35H.45v-19.34Zm4.63,8.56c1.05,0,1.88-.08,2.46-.26,1.02-.29,1.65-1.15,1.65-2.25,0-1.23-.63-2.15-1.67-2.43-.55-.13-1.1-.18-2.28-.18h-1.2v5.13h1.05Z"/>
        <path class="cls-1" d="m17.53,165.62c.42,1.75,1.94,2.85,4,2.85,1.44,0,2.3-.39,3.19-1.44h3.79c-.24.73-.6,1.33-1.15,2.01-1.52,1.78-3.38,2.62-5.76,2.62-4.42,0-7.85-3.3-7.85-7.54s3.38-7.64,7.64-7.64,7.48,3.3,7.48,7.8c0,.52-.03.84-.13,1.33h-11.23Zm7.93-3.06c-.44-1.86-1.86-2.88-4-2.88s-3.48.99-4.03,2.88h8.03Z"/>
        <path class="cls-1" d="m45.29,166.56c-1.2,3.25-3.79,5.1-7.2,5.1-4.29,0-7.75-3.38-7.75-7.59s3.35-7.59,7.64-7.59c2.07,0,4.03.76,5.44,2.15.92.89,1.36,1.62,1.86,3.04h-3.92c-.71-1.36-1.81-1.99-3.38-1.99-2.43,0-4.13,1.81-4.13,4.37s1.81,4.42,4.21,4.42c1.44,0,2.43-.58,3.3-1.91h3.92Z"/>
        <path class="cls-1" d="m57.25,171.32v-11.33h-6.38v11.33h-3.48v-14.5h13.35v14.5h-3.48Z"/>
        <path class="cls-1" d="m67.54,169.96l-5.31-13.14h3.98l3.22,9.39,3.51-9.39h4l-8.37,19.34h-3.74l2.72-6.2Z"/>
        <path class="cls-1" d="m93.31,164.18c0,4.16-3.45,7.48-7.69,7.48-2.56,0-4.97-1.13-6.36-3.4-1.18-1.94-1.23-4.84-1.23-7.8,0-5.84,2.57-9.05,8.01-9.47l6.31-.5v3.11l-6.18.52c-3.74.31-5.52,2.09-5.55,5.39l.05.03c.58-1.13,2.49-2.77,4.97-2.77,4.21,0,7.67,3.3,7.67,7.41Zm-11.91-.03c0,2.43,1.88,4.32,4.19,4.32s4.21-1.88,4.21-4.29-1.88-4.29-4.27-4.29c-2.25,0-4.13,1.91-4.13,4.27Z"/>
        <path class="cls-1" d="m104.38,171.32l-3.69-9.63-3.69,9.63h-3.71l6.04-14.5h2.72l6.04,14.5h-3.72Z"/>
        <path class="cls-1" d="m123.06,156.82v14.5h-3.45v-9.58l-6.49,9.58h-3.53v-14.5h3.45v9.58l6.49-9.58h3.53Z"/>
        <path class="cls-1" d="m125.88,156.82h3.48v6.67l5.03-6.67h4.21l-5.78,7.2,6.1,7.3h-4.53l-5.03-6.67v6.67h-3.48v-14.5Z"/>
        <path class="cls-1" d="m153.96,171.32h-3.19v-1.88c-1.39,1.6-2.77,2.22-4.82,2.22-4.24,0-7.3-3.17-7.3-7.54s3.09-7.64,7.38-7.64c2.09,0,3.53.68,4.74,2.28v-1.94h3.19v14.5Zm-11.8-7.12c0,2.54,1.75,4.27,4.29,4.27s4.21-1.75,4.21-4.34-1.78-4.45-4.32-4.45-4.19,1.91-4.19,4.53Z"/>
        <path class="cls-1" d="m168.14,159.23h1.2c2.8,0,4.11.18,5.23.79,1.78.94,2.85,2.98,2.85,5.29s-.94,4-2.59,5.02c-1.2.76-2.64.99-5.44.99h-4.84v-19.34h11.65v3.43h-8.06v3.82Zm0,8.66h1.31c1.28,0,1.88-.08,2.51-.21,1.15-.29,1.86-1.23,1.86-2.46,0-1.1-.71-1.99-1.83-2.28-.65-.18-1.54-.29-2.7-.29h-1.15v5.23Z"/>
        <path class="cls-1" d="m182.88,165.62c.42,1.75,1.94,2.85,4,2.85,1.44,0,2.3-.39,3.19-1.44h3.79c-.24.73-.6,1.33-1.15,2.01-1.52,1.78-3.38,2.62-5.76,2.62-4.42,0-7.85-3.3-7.85-7.54s3.38-7.64,7.64-7.64,7.48,3.3,7.48,7.8c0,.52-.03.84-.13,1.33h-11.23Zm7.93-3.06c-.45-1.86-1.86-2.88-4-2.88s-3.48.99-4.03,2.88h8.03Z"/>
        <path class="cls-1" d="m205.3,171.32l-3.69-9.63-3.69,9.63h-3.72l6.04-14.5h2.72l6.04,14.5h-3.72Z"/>
        <path class="cls-1" d="m224.3,171.32h-3.19v-1.88c-1.39,1.6-2.77,2.22-4.82,2.22-4.24,0-7.3-3.17-7.3-7.54s3.09-7.64,7.38-7.64c2.09,0,3.53.68,4.74,2.28v-1.94h3.19v14.5Zm-11.8-7.12c0,2.54,1.75,4.27,4.29,4.27s4.21-1.75,4.21-4.34-1.78-4.45-4.32-4.45-4.19,1.91-4.19,4.53Z"/>
        <path class="cls-1" d="m227.12,156.82h3.19v1.7c1.12-1.33,2.8-2.04,4.76-2.04,4.19,0,7.22,3.17,7.22,7.54s-3.06,7.64-7.25,7.64c-1.78,0-3.11-.52-4.45-1.7v6.2h-3.48v-19.34Zm3.27,7.3c0,2.46,1.86,4.34,4.26,4.34s4.13-1.91,4.13-4.37-1.78-4.42-4.24-4.42-4.16,1.91-4.16,4.45Z"/>
        <path class="cls-1" d="m247.71,169.96l-5.31-13.14h3.98l3.22,9.39,3.51-9.39h4l-8.37,19.34h-3.74l2.72-6.2Z"/>
        <path class="cls-1" d="m272,166.56c-1.2,3.25-3.79,5.1-7.2,5.1-4.29,0-7.75-3.38-7.75-7.59s3.35-7.59,7.64-7.59c2.07,0,4.03.76,5.44,2.15.92.89,1.36,1.62,1.86,3.04h-3.93c-.71-1.36-1.81-1.99-3.38-1.99-2.43,0-4.13,1.81-4.13,4.37s1.81,4.42,4.21,4.42c1.44,0,2.43-.58,3.3-1.91h3.93Z"/>
        <path class="cls-1" d="m285.5,166.56c0,2.56-2.01,4.76-5.02,4.76h-6.39v-14.5h3.48v4.97h2.91c3.01,0,5.02,2.2,5.02,4.76Zm-7.93,1.6h2.67c1.05,0,1.75-.68,1.75-1.6s-.71-1.6-1.75-1.6h-2.67v3.19Z"/>
      </g>
    </g>
  </g>
</svg>